<?xml version="1.0" encoding="utf-8"?>
<!-- Generator: Adobe Illustrator 15.0.2, SVG Export Plug-In . SVG Version: 6.00 Build 0)  -->
<!DOCTYPE svg PUBLIC "-//W3C//DTD SVG 1.1//EN" "http://www.w3.org/Graphics/SVG/1.1/DTD/svg11.dtd">
<svg version="1.1" id="Layer_1" xmlns="http://www.w3.org/2000/svg" xmlns:xlink="http://www.w3.org/1999/xlink" x="0px" y="0px"
	 width="300px" height="300px" viewBox="0 0 300 300" enable-background="new 0 0 300 300" xml:space="preserve">
<path fill="#D71920" d="M170.452,68.07c-1.244-2.407-0.555-4.798,0.241-7.18l3.481-10.415l4.812,1.607l-3.258,9.752
	c-0.804,2.406-1.511,5.093,1.586,6.126c3.094,1.034,4.146-1.537,4.949-3.944l3.255-9.75l4.817,1.607l-3.481,10.415
	c-0.796,2.383-1.681,4.707-4.122,5.884c-2.057,1.006-4.668,0.734-6.828,0.012C173.741,71.464,171.489,70.11,170.452,68.07
	 M186.104,75.462L196.17,58.73l6.501,3.911c3.31,1.989,4.866,5.075,2.718,8.648c-1.391,2.306-3.878,3.529-6.504,2.521l1.132,10.022
	l-5.415-3.257l-0.232-8.904l-0.046-0.029l-3.869,6.436L186.104,75.462z M196.007,68.848l0.422,0.254
	c1.419,0.854,3.181,1.548,4.271-0.271c1.095-1.819-0.342-3.048-1.764-3.901l-0.419-0.254L196.007,68.848z M216.275,99.991
	l4.545-4.049c-1.654,0.05-3.358-0.652-4.458-1.889c-2.104-2.36-1.854-5.426,0.448-7.476c2.263-2.017,5.435-2.035,7.503,0.286
	c1.154,1.294,1.712,3.05,1.358,4.755l4.542-4.049c-0.531-1.536-1.262-2.898-2.347-4.117c-1.827-2.048-4.56-3.325-7.303-3.447
	c-2.674-0.117-5.26,0.834-7.25,2.608c-2.166,1.931-3.404,4.354-3.428,7.25c-0.028,2.73,0.923,5.354,2.732,7.384
	C213.667,98.43,214.768,99.077,216.275,99.991 M150.008,151.745l47.406,47.405l2.287-2.29l-47.404-47.403l47.404-47.405
	l-2.287-2.286l-47.406,47.403l-47.401-47.405l-2.292,2.288l47.404,47.405l-47.404,47.403l2.287,2.29L150.008,151.745z
	 M86.101,164.816l2.614-4.133c-2.223-2.528-3.717-5.723-4.128-9.238l-12.59-1.988l12.59-1.988c0.411-3.518,1.905-6.709,4.128-9.235
	l-2.614-4.135l4.133,2.616c2.528-2.228,5.72-3.716,9.238-4.129l1.985-12.589l1.991,12.589c3.519,0.414,6.708,1.901,9.235,4.129
	l4.136-2.616l-2.62,4.135c2.229,2.526,3.72,5.718,4.131,9.235l12.588,1.988l-12.588,1.988c-0.414,3.519-1.902,6.71-4.131,9.238
	l2.62,4.133l-4.136-2.616c-2.528,2.229-5.717,3.717-9.238,4.131l-1.988,12.588l-1.988-12.588c-3.516-0.414-6.707-1.902-9.232-4.131
	L86.101,164.816z M99.208,164.665l-1.169-7.406l-6.377,4.039C93.779,163.05,96.368,164.245,99.208,164.665 M97.764,155.519
	l-0.322-2.044l-6.125,6.126l0,0L97.764,155.519z M111.256,161.298l-6.38-4.039l-1.166,7.406
	C106.551,164.245,109.142,163.05,111.256,161.298 M111.604,159.601l-4.082-6.448l-2.042,0.322L111.604,159.601z M116.666,151.709
	l-7.403,1.168l4.036,6.376C115.051,157.139,116.249,154.547,116.666,151.709 M109.263,146.037l7.403,1.169
	c-0.417-2.84-1.615-5.431-3.367-7.546L109.263,146.037z M111.601,139.315l-6.449,4.079l0.328,2.044L111.601,139.315z M103.71,134.25
	l1.172,7.404l6.375-4.036C109.142,135.867,106.551,134.669,103.71,134.25 M91.662,137.618l6.377,4.036l1.169-7.404
	C96.368,134.669,93.779,135.865,91.662,137.618 M91.317,139.315l4.079,6.447l2.045-0.323L91.317,139.315z M86.25,147.207
	l7.406-1.169l-4.033-6.377C87.868,141.776,86.669,144.367,86.25,147.207 M98.855,152.06v0.002l2.603-2.604v19.086l2.605-16.481l0,0
	l-2.605-2.604h19.091l-16.486-2.603l0,0l-2.605,2.603V130.37l-2.603,16.484l0,0l2.603,2.603H82.372L98.855,152.06z M89.623,159.253
	l4.033-6.376l-7.406-1.169C86.669,154.547,87.868,157.139,89.623,159.253 M205.98,138.258c0-1.397,0.546-2.712,1.534-3.7
	c3.326-3.327,9.687-3.366,9.956-3.366h1.953l-1.382,1.38c-1.327,1.327-1.327,2.623-1.327,4.121c0,1.623,0,3.464-1.801,5.264
	c-0.988,0.99-2.304,1.534-3.7,1.534c-0.373,0-0.738-0.042-1.091-0.116c-0.058,0.406-0.242,0.783-0.535,1.079
	c-0.364,0.36-0.844,0.562-1.355,0.562c-0.106,0-0.213-0.015-0.313-0.032c-1.37,1.653-2.766,3.263-4.18,4.854l12.941,12.942
	c1.727,1.729,1.727,4.527,0,6.257c-0.864,0.864-1.996,1.298-3.128,1.298s-2.267-0.434-3.129-1.298l-12.73-12.731
	c-4.826,4.906-9.92,9.531-15.392,13.92c-0.354,0.271-0.773,0.408-1.227,0.408c-0.592,0-1.167-0.235-1.583-0.652
	c-0.762-0.764-0.876-1.993-0.256-2.798c4.398-5.478,9.025-10.579,13.93-15.404l-10.896-10.898l-3.131-9.386l9.388,3.128
	l11.108,11.11c1.592-1.414,3.2-2.812,4.852-4.181c-0.017-0.104-0.028-0.207-0.028-0.313c0-0.512,0.198-0.993,0.56-1.353
	c0.296-0.294,0.682-0.464,1.083-0.519C206.023,139.008,205.98,138.637,205.98,138.258 M186.852,137.753
	c0,0.445,0.176,0.864,0.491,1.182l9.411,9.414c0.554-0.516,1.108-1.027,1.672-1.535l-10.583-10.585
	c-0.184,0.083-0.354,0.195-0.5,0.342C187.027,136.885,186.852,137.305,186.852,137.753 M183.447,138.935
	c0.621-0.617,1.512-0.903,2.355-0.777c-0.02-0.134-0.028-0.27-0.028-0.405c0-0.737,0.284-1.428,0.805-1.946
	c0.034-0.035,0.074-0.059,0.108-0.091l-4.136-1.379l-0.569,0.572l1.379,4.135C183.393,139.008,183.416,138.968,183.447,138.935
	 M194.317,150.642c0.543-0.526,1.101-1.039,1.652-1.556l-9.391-9.389c-0.632-0.632-1.735-0.632-2.367,0
	c-0.144,0.146-0.256,0.316-0.339,0.5L194.317,150.642z M213.185,166.302l-12.8-12.799c-0.518,0.551-1.031,1.107-1.555,1.653
	l12.737,12.737c0.118,0.118,0.25,0.221,0.385,0.315C212.214,167.589,212.628,166.929,213.185,166.302 M202.659,151.047
	c-0.511,0.561-1.022,1.116-1.536,1.671l12.826,12.82c0.623-0.555,1.278-0.971,1.898-1.235c-0.095-0.132-0.192-0.259-0.311-0.379
	L202.659,151.047z M206.54,144.114l-1.183-1.182c-9.173,7.611-17.334,15.892-24.852,25.249c-0.101,0.132-0.071,0.454,0.13,0.655
	c0.111,0.114,0.275,0.181,0.439,0.181c0.092,0,0.172-0.022,0.227-0.063C190.641,161.456,198.92,153.296,206.54,144.114
	 M206.164,141.03c-0.074,0.076-0.089,0.164-0.089,0.21c0,0.044,0.015,0.133,0.089,0.209l1.858,1.858
	c0.078,0.076,0.164,0.088,0.21,0.088s0.132-0.012,0.21-0.088c0.077-0.076,0.089-0.164,0.089-0.209c0-0.044-0.012-0.134-0.089-0.208
	l-1.858-1.861c-0.078-0.075-0.164-0.086-0.213-0.086C206.328,140.943,206.239,140.954,206.164,141.03 M221.967,210.833
	c2.41,2.321,2.393,5.751,0.071,8.161c-2.318,2.404-5.366,2.617-7.695,0.371l-0.313-0.302c-2.407-2.318-2.393-5.754-0.069-8.161
	c2.318-2.407,5.366-2.614,7.693-0.368L221.967,210.833z M220.021,212.85c-2.097-2.022-3.68-2.493-4.94-1.465l-0.42,0.345
	l-0.33,0.431c-0.982,1.302-0.451,2.861,1.646,4.884c2.098,2.022,3.678,2.496,4.941,1.465l0.419-0.342l0.331-0.434
	C222.647,216.435,222.119,214.872,220.021,212.85 M165.689,200.239c-0.38,0-0.784-0.003-1.207-0.006
	c-0.009,0.04-0.017,0.086-0.022,0.126c-0.328,1.805-0.722,3.428-1.904,3.428c-0.451,0-1.066,0.462-1.273,0.95
	c-0.203,0.494-1.562,4.484-2.277,6.602v2.206c0,0.296-0.241,0.54-0.54,0.54h-5.329c-0.425,0-0.772-0.219-0.922-0.58
	c-0.204-0.494-0.003-1.115,0.543-1.658l0.531-0.531l1.138-7.463h-1.749c-0.201,0-0.392-0.114-0.483-0.293
	c-0.092-0.184-0.074-0.399,0.046-0.562l1.913-2.66c-0.447,0.011-0.901,0.028-1.355,0.046c-7.75,0.31-13.524,1.844-17.175,4.553
	c-0.181,0.793-0.528,1.901-1.442,1.901h-1.457c-0.977,0-1.454-1.117-1.833-4.269c-0.279-2.323-0.434-5.406-0.434-8.678
	c0-3.274,0.155-6.357,0.434-8.681c0.379-3.151,0.856-4.27,1.833-4.27h1.457c0.917,0,1.261,1.112,1.442,1.902
	c3.651,2.712,9.425,4.245,17.175,4.556c4.89,0.195,9.704,0.161,12.893,0.141c0.764-0.006,1.416-0.009,1.93-0.009
	c0.575,0,1,0.385,1.322,0.972h3.783c1.847,0,1.99,4.125,1.99,5.389s-0.144,5.386-1.99,5.386h-3.783
	c-0.322,0.583-0.747,0.974-1.322,0.974C167.105,200.25,166.453,200.245,165.689,200.239 M173.086,193.351h-3.237
	c0.003,0.178,0.012,0.356,0.012,0.54s-0.009,0.356-0.012,0.54h3.237c0.003-0.178,0.012-0.356,0.012-0.54
	C173.098,193.701,173.089,193.525,173.086,193.351 M169.711,191.408c0.04,0.345,0.074,0.701,0.098,1.077h3.229
	c-0.034-0.407-0.086-0.767-0.141-1.077H169.711z M169.711,196.372h3.186c0.055-0.312,0.106-0.672,0.141-1.08h-3.229
	C169.785,195.666,169.751,196.024,169.711,196.372 M133.327,193.891c0-4.347,0.281-8.385,0.735-10.592
	c-0.086-0.37-0.161-0.605-0.213-0.738h-0.801c-0.434,1.023-0.971,5.208-0.971,11.33c0,6.118,0.537,10.301,0.971,11.329h0.801
	c0.052-0.132,0.126-0.367,0.213-0.738C133.608,202.272,133.327,198.234,133.327,193.891 M167.163,193.891
	c0,0.422-0.026,3.073-0.641,4.734c0.361,0.005,0.689,0.005,0.982,0.005l0.166-0.447c0.356-0.951,0.569-2.557,0.569-4.292
	c0-1.738-0.213-3.344-0.569-4.298l-0.166-0.445c-0.293,0.003-0.621,0.003-0.982,0.006
	C167.137,190.814,167.163,193.466,167.163,193.891 M165.356,198.619c0.333-0.655,0.727-2.318,0.727-4.729
	c0-2.413-0.394-4.079-0.727-4.731c-0.972,0.009-2.12,0.015-3.401,0.015c-2.718,0-5.992-0.031-9.222-0.161
	c-7.871-0.315-13.84-1.879-17.767-4.645c-0.348,2.249-0.56,5.759-0.56,9.522c0,3.757,0.212,7.273,0.56,9.52
	c3.927-2.764,9.896-4.332,17.767-4.645c0.719-0.032,1.439-0.055,2.157-0.072v-1.16c0-0.296,0.239-0.537,0.538-0.54l8.259-0.058
	c0.031,0,0.065,0,0.1,0.006c0.67,0.126,0.868,0.833,0.865,1.672C164.896,198.613,165.132,198.619,165.356,198.619 M180.569,237.089
	c1.098,4.28-1.413,8.376-5.803,9.503c-4.39,1.126-8.066-1.052-9.138-5.229l-0.213-0.836c-1.1-4.286,1.414-8.383,5.803-9.506
	c4.387-1.126,8.063,1.049,9.138,5.229L180.569,237.089z M177.381,237.681c-0.965-3.761-2.729-5.78-5.217-5.567l-0.649,0.058
	l-0.419,0.106l-0.601,0.264c-2.16,0.957-2.881,3.522-1.891,7.392c0.963,3.763,2.727,5.779,5.214,5.567l0.652-0.058l0.417-0.106
	l0.603-0.268C177.65,244.115,178.375,241.547,177.381,237.681 M190.635,239.473l-0.994,0.426l-0.678,0.055l-0.367-0.313
	l-1.738-4.067c-0.405-2.057-0.061-3.729,0.83-4.108c0.399-0.169,0.821,0,0.951,0.299l-0.454,1.132l0.04,0.101
	c0.354,0.555,1.02,0.738,1.614,0.485c0.854-0.364,1.152-1.431,0.728-2.421c-0.506-1.192-1.781-1.704-2.971-1.195
	c-1.293,0.549-1.962,2.172-1.654,4.104l0.141,0.877l-0.17-0.395l-0.815-2.47l-0.173-0.396l-0.281-0.115l-3.375,1.439l-0.112,0.284
	l0.253,0.595l0.284,0.115l0.595-0.253l0.678-0.055l0.371,0.311l2.875,6.75l-0.028,0.482l-0.512,0.451l-0.695,0.296l-0.111,0.284
	l0.252,0.595l0.282,0.115l1.094-0.466l1.503-0.876l1.87-0.562l1.192-0.509l0.114-0.281l-0.256-0.598L190.635,239.473z
	 M155.319,245.115c-1.184,0.068-2,0.977-1.931,2.165c0.052,0.859,0.626,1.477,1.5,1.641l1.114-1.252
	c0.132,2.261-1.158,4.279-3.28,4.943l0.037,0.646l0.342,0.305l0.753-0.044c2.536-1.011,4.231-3.484,4.084-6.069
	C157.858,246.051,156.718,245.034,155.319,245.115 M150.777,248.378l0.204,0.229l-0.04,0.644l-0.224,0.207l-1.617-0.095
	l-1.735,0.118l-0.609-0.684l-0.178-0.661l0.158-0.856c-0.842,1.469-2.068,2.155-3.901,2.049c-2.692-0.155-4.608-2.534-4.424-5.766
	c0.189-3.338,2.708-5.788,5.725-5.613c1.292,0.072,2.438,0.787,2.921,1.787l0.189,0.442l-0.089-2.166l0.184-3.229l-0.189-0.445
	l-0.635-0.25l-0.968-0.058l-0.204-0.227l0.038-0.646l0.227-0.201l4.203,0.238l0.204,0.227l-0.815,14.217l0.189,0.445l0.635,0.253
	L150.777,248.378z M146.954,241.57c-0.356-1.318-1.385-2.241-2.459-2.304c-1.942-0.109-3.117,1.551-3.272,4.242
	c-0.152,2.691,0.836,4.263,2.775,4.375c1.077,0.063,2.204-0.741,2.709-2.008L146.954,241.57z M121.698,235.784l-2.453,6.455
	l0.178,0.756l0.529,0.431l0.678,0.028l0.126,0.279l-0.189,0.505l-0.698,0.313l-1.06,0.058l-0.908-0.345l-0.732-0.506l-0.31-0.695
	l-0.124-1.2c-1.126,0.842-2.565,0.988-3.979,0.451c-2.02-0.768-2.807-2.336-2.157-4.051c0.689-1.815,3.407-2.284,6.435-1.135
	l1.005,0.382l0.281-0.123l0.764-2.02c-0.098-0.96-0.548-1.595-1.456-1.939c-0.606-0.229-1.491-0.333-2.045-0.083l-0.537,1.413
	c-0.494,0.388-1.115,0.5-1.718,0.273c-0.604-0.233-0.856-0.787-0.626-1.394c0.575-1.514,3.47-2.146,5.788-1.267l0.302,0.114
	C120.606,233.176,121.549,234.228,121.698,235.784 M117.898,238.496l-0.808-0.308c-2.017-0.764-3.533-0.416-4.033,0.894
	c-0.379,1.009-0.006,1.845,1.002,2.224c1.209,0.46,2.223,0.224,3.033-0.692L117.898,238.496z M135.326,247.27l-0.586-0.345
	l-0.121-0.466l1.431-6.753l-0.121-0.469c-0.362-1.401-1.368-2.384-2.528-2.631c-1.793-0.383-3.413,0.178-4.527,1.574l-0.299,0.373
	l0.661-2.062l0.046-0.213l-0.169-0.255l-3.797-0.808l-0.256,0.167l-0.132,0.632l0.164,0.258l0.632,0.133l0.589,0.345l0.121,0.471
	l-1.522,7.173l-0.302,0.377l-0.678,0.077l-0.738-0.158l-0.255,0.167l-0.135,0.632l0.167,0.259l1.161,0.247l1.732,0.149l1.644,0.568
	l1.163,0.247l0.253-0.167l0.135-0.635l-0.164-0.255l-0.741-0.155l-0.586-0.348l-0.124-0.469l1.077-5.062
	c0.971-1.45,2.229-2.174,3.387-1.93c0.738,0.16,1.281,0.715,1.525,1.648l-1.344,6.331l-0.302,0.379l-0.678,0.075l-0.738-0.155
	l-0.258,0.167l-0.132,0.632l0.164,0.253l1.164,0.247l1.732,0.149l1.644,0.568l1.16,0.247l0.256-0.167l0.135-0.632l-0.164-0.256
	L135.326,247.27z M107.117,238.422l-0.477-0.488l0.003-0.482l6.466-12.688l-0.098-0.29l-3.458-1.765l-0.293,0.096l-0.293,0.577
	l0.098,0.287l0.575,0.296l0.482,0.485l-0.006,0.482l-5.78,11.347l-0.388,0.285l-0.675-0.101l-0.672-0.345l-0.293,0.095l-0.293,0.577
	l0.095,0.29l1.06,0.537l1.632,0.595l1.442,0.974l1.155,0.586l0.29-0.092l0.293-0.577l-0.095-0.29L107.117,238.422z M203.295,230.557
	c0.514,1.947-0.42,3.992-2.468,5.188l-0.187,0.109c-2.888,1.687-5.694,0.951-7.38-1.937l-0.219-0.373
	c-1.574-2.703-0.687-6.096,2.017-7.676c2.425-1.413,5.137-0.623,6.659,1.985l0.215,0.373l-0.077,0.296l-6.188,3.614l-0.075,0.293
	l0.055,0.095c1.25,2.14,3.221,2.863,4.897,1.887c1.305-0.764,1.71-1.999,1.359-3.668l0.169-0.348l0.966-0.063L203.295,230.557z
	 M194.979,231.289l3.912-2.284l0.115-0.442l-0.055-0.092c-0.979-1.678-2.321-2.27-3.536-1.562c-1.114,0.655-1.451,2.224-0.546,4.197
	L194.979,231.289z M217.348,225.949c1.197,1.527,0.348,4.119-2.201,6.112l-1.697,1.33c-2.037,1.598-3.686,1.244-4.35,0.396
	c-0.669-0.851-0.589-1.87,0.213-3.048c-1.132,0.477-2.126,0.434-2.858-0.5c-0.796-1.02-0.264-2.264,0.604-3.076l-0.066-0.086
	c-1.267,0.307-2.912-0.047-3.843-1.235l-0.139-0.17c-1.459-1.867-0.657-4.69,1.379-6.288c0.851-0.663,1.66-1.025,2.522-1.151
	l1.364-1.759l1.02-0.798l0.945-0.193l0.531,0.682l-0.071,0.603l-0.509,0.402l-0.775,0.058l-1.663,1.028
	c1.249-0.155,2.404,0.445,3.005,1.212l0.198,0.253c1.53,1.953,0.879,4.792-1.583,6.723l-1.187,0.934
	c-0.937,0.732-1.201,1.267-0.827,1.743c0.333,0.425,0.804,0.327,1.654-0.339l2.884-2.264
	C214.276,224.656,216.281,224.593,217.348,225.949 M208.095,226.213l1.017-0.799c1.275-0.999,1.207-2.314-0.192-4.096
	c-1.396-1.784-2.657-2.166-3.933-1.166c-1.272,0.993-1.2,2.309,0.195,4.093C206.112,225.435,207.037,226.084,208.095,226.213
	 M216.028,227.942c-0.729-0.934-2.166-0.494-4.711,1.505l-1.191,0.931l-0.018,0.149c-0.055,0.454,0.043,0.928,0.373,1.354
	c0.799,1.02,2.198,0.882,3.898-0.451C216.161,230.033,216.695,228.793,216.028,227.942 M220.889,108.118l16.541-10.372l-2.697-4.299
	l-16.538,10.37L220.889,108.118z M282.84,149.457c0,0.914-0.661,1.695-1.565,1.834c-5.521,0.876-9.793,5.345-10.37,10.869
	c-0.578,5.446,2.573,10.634,7.673,12.702c0.844,0.173,1.479,0.922,1.479,1.827c0,1.037-0.796,1.879-1.899,1.853
	c-0.049,0-0.086,0-0.132-0.006l-0.649-0.014c-5.383,0-10.103,3.412-11.758,8.491c-1.721,5.282,0.365,11.1,5.059,14.145
	c0.762,0.503,1.052,1.482,0.679,2.318c-0.371,0.836-1.296,1.281-2.178,1.043c-5.291-1.42-11.169,0.99-13.897,5.713
	c-2.764,4.807-1.942,10.931,2.002,14.881c0.652,0.657,0.727,1.669,0.189,2.41c-0.531,0.74-1.525,0.987-2.341,0.562
	c-4.855-2.459-11.151-1.327-14.788,2.7c-3.712,4.125-4.177,10.293-1.129,14.983c0.499,0.77,0.364,1.781-0.316,2.396
	c-0.678,0.615-1.703,0.633-2.416,0.066c-4.234-3.427-10.608-3.646-15.018-0.439c-4.493,3.264-6.233,9.198-4.223,14.415
	c0.33,0.864-0.015,1.821-0.811,2.28c-0.793,0.46-1.801,0.271-2.372-0.437c-3.425-4.234-9.606-5.776-14.596-3.556
	c-5.076,2.261-8.01,7.704-7.133,13.23c0.144,0.896-0.391,1.775-1.262,2.062c-0.879,0.282-1.824-0.108-2.231-0.934
	c-2.496-4.886-8.19-7.652-13.548-6.503c-5.423,1.16-9.428,5.859-9.721,11.45c-0.049,0.913-0.752,1.657-1.666,1.755
	c-0.896,0.104-1.752-0.488-1.993-1.373c-1.454-5.395-6.337-9.17-11.893-9.17c-5.567,0-10.462,3.786-11.901,9.213
	c-0.221,0.824-0.962,1.379-1.795,1.379c-0.069,0-0.135,0-0.201-0.009c-0.914-0.098-1.614-0.842-1.66-1.752
	c-0.282-5.607-4.275-10.321-9.715-11.479c-5.369-1.135-11.065,1.626-13.556,6.516c-0.417,0.812-1.365,1.2-2.235,0.919
	c-0.868-0.272-1.405-1.149-1.261-2.051c0.885-5.533-2.048-10.974-7.13-13.234c-5.047-2.24-11.146-0.721-14.602,3.557
	c-0.577,0.715-1.583,0.888-2.375,0.439c-0.798-0.454-1.138-1.425-0.807-2.275c2.014-5.228,0.276-11.157-4.22-14.432
	c-4.418-3.206-10.795-2.984-15.024,0.442c-0.712,0.574-1.738,0.546-2.418-0.063c-0.681-0.611-0.811-1.632-0.316-2.396
	c3.06-4.694,2.594-10.853-1.126-14.986c-3.634-4.03-9.954-5.153-14.794-2.687c-0.821,0.417-1.812,0.179-2.355-0.568
	c-0.534-0.741-0.454-1.764,0.198-2.404c3.961-3.961,4.792-10.086,2.011-14.903c-2.726-4.72-8.598-7.133-13.912-5.708
	c-0.885,0.233-1.804-0.206-2.18-1.039c-0.371-0.839-0.078-1.821,0.692-2.315c4.7-3.045,6.785-8.865,5.064-14.156
	c-1.655-5.067-6.38-8.486-11.758-8.486l-0.655,0.018c-0.868,0.034-1.735-0.574-1.925-1.479c-0.189-0.894,0.299-1.795,1.158-2.117
	c5.231-1.999,8.48-7.259,7.897-12.791c-0.586-5.53-4.855-10.003-10.385-10.875c-0.902-0.142-1.568-0.917-1.568-1.834
	c0-0.916,0.667-1.695,1.568-1.838c5.536-0.871,9.805-5.336,10.385-10.866c0.577-5.53-2.666-10.792-7.891-12.796
	c-0.853-0.326-1.341-1.228-1.152-2.119c0.187-0.899,1.051-1.501,1.919-1.475l0.655,0.018c5.383,0,10.106-3.407,11.752-8.487
	c1.715-5.29-0.365-11.11-5.059-14.155c-0.77-0.499-1.06-1.481-0.687-2.32c0.371-0.833,1.295-1.278,2.18-1.041
	c5.3,1.436,11.18-0.985,13.9-5.702c2.778-4.816,1.957-10.942-2.002-14.899c-0.646-0.643-0.73-1.665-0.19-2.407
	s1.534-0.981,2.347-0.563c4.846,2.466,11.163,1.336,14.785-2.687c3.72-4.138,4.186-10.301,1.138-14.988
	c-0.497-0.769-0.362-1.786,0.316-2.399c0.681-0.613,1.704-0.636,2.419-0.062c4.223,3.425,10.605,3.645,15.015,0.442
	c4.496-3.273,6.236-9.207,4.226-14.426c-0.328-0.854,0.017-1.821,0.812-2.278c0.79-0.461,1.801-0.27,2.37,0.441
	c3.43,4.229,9.612,5.775,14.607,3.549c5.07-2.261,8.006-7.699,7.126-13.221c-0.144-0.906,0.391-1.779,1.264-2.064
	c0.873-0.284,1.818,0.109,2.229,0.922c2.494,4.891,8.17,7.643,13.547,6.511c5.432-1.153,9.434-5.865,9.727-11.456
	c0.049-0.909,0.752-1.653,1.66-1.75c0.902-0.107,1.752,0.482,1.991,1.366c1.45,5.406,6.345,9.187,11.895,9.187
	c5.547,0,10.439-3.771,11.893-9.161c0.232-0.885,1.068-1.458,1.987-1.366c0.911,0.099,1.614,0.837,1.663,1.751
	c0.296,5.584,4.292,10.29,9.719,11.434c5.383,1.153,11.054-1.611,13.55-6.503c0.411-0.814,1.358-1.205,2.232-0.92
	c0.873,0.278,1.407,1.153,1.261,2.057c-0.882,5.53,2.048,10.968,7.127,13.224c5.004,2.23,11.18,0.678,14.61-3.549
	c0.571-0.712,1.579-0.895,2.372-0.442c0.796,0.459,1.141,1.426,0.811,2.281c-2.014,5.226-0.282,11.153,4.211,14.415
	c4.421,3.214,10.795,2.998,15.029-0.431c0.713-0.576,1.729-0.549,2.41,0.063c0.687,0.609,0.816,1.625,0.316,2.393
	c-3.048,4.694-2.583,10.855,1.135,14.981c3.619,4.026,9.933,5.162,14.788,2.699c0.815-0.414,1.81-0.175,2.35,0.559
	c0.54,0.746,0.46,1.765-0.192,2.413c-3.962,3.958-4.789,10.077-2.008,14.886c2.729,4.721,8.595,7.133,13.897,5.715
	c0.882-0.241,1.807,0.206,2.178,1.04c0.373,0.837,0.083,1.815-0.684,2.315c-4.688,3.049-6.774,8.862-5.054,14.14
	c1.655,5.087,6.375,8.503,11.758,8.503l0.649-0.017c0.891-0.059,1.729,0.575,1.913,1.469c0.192,0.898-0.293,1.795-1.149,2.122
	c-5.23,2.006-8.463,7.263-7.885,12.786c0.577,5.523,4.849,9.994,10.37,10.875C282.179,147.764,282.84,148.541,282.84,149.457
	 M264.906,149.457c0-63.355-51.543-114.9-114.898-114.9S35.112,86.102,35.112,149.457c0,63.355,51.54,114.898,114.896,114.898
	S264.906,212.812,264.906,149.457 M237.814,107.599l-13.909,6.185l2.06,4.636l13.912-6.183l1.703,3.831l3.928-1.747l-5.47-12.3
	l-3.93,1.747L237.814,107.599z M234.641,201.204l-0.302,0.052l-0.439,0.615l-0.552,0.398l-0.477-0.071l-5.619-4.016l-0.477-0.075
	c-1.428-0.227-2.732,0.299-3.425,1.264c-1.065,1.494-1.197,3.2-0.364,4.78l0.227,0.425l-1.632-1.43l-0.175-0.124l-0.299,0.049
	l-2.261,3.16l0.049,0.305l0.528,0.373l0.305-0.052l0.373-0.525l0.552-0.399l0.478,0.074l5.969,4.267l0.227,0.425l-0.2,0.652
	l-0.44,0.614l0.053,0.302l0.522,0.376l0.305-0.052l0.689-0.965l0.827-1.528l1.178-1.281l0.689-0.965l-0.049-0.302l-0.525-0.376
	l-0.299,0.052l-0.442,0.614l-0.552,0.402l-0.477-0.078l-4.215-3.01c-0.939-1.468-1.1-2.91-0.41-3.875
	c0.437-0.615,1.166-0.891,2.117-0.741l5.265,3.763l0.23,0.431l-0.204,0.649l-0.439,0.615l0.052,0.298l0.528,0.38l0.299-0.052
	l0.689-0.966l0.83-1.527l1.178-1.281l0.692-0.966l-0.052-0.299L234.641,201.204z M229.168,127.885l1.181,4.935l9.114-2.174
	l11.546,4.646l-1.411-5.919l-6.012-2.319l4.314-4.781l-1.41-5.921l-8.202,9.358L229.168,127.885z M240.472,162.717
	c-2.68,0-4.854,2.178-4.854,4.854c0,2.684,2.175,4.858,4.854,4.858s4.857-2.175,4.857-4.858
	C245.329,164.895,243.151,162.717,240.472,162.717 M75.073,205.467l-1.149-1.568l-0.302-0.043l-3.476,2.554l-0.221,0.428
	l0.336,0.825l0.638,0.867l-0.043,0.305l-0.523,0.382l-0.301-0.043l-1.086-1.482l-0.851-1.517L66.9,204.91l-1.022-1.391l0.046-0.302
	l0.522-0.382l0.299,0.046l0.578,0.781l0.687,0.568l0.477-0.083l9.382-6.896l0.224-0.432l-0.339-0.821l-0.574-0.781l0.046-0.305
	l0.523-0.382l0.298,0.046l1.023,1.391l0.85,1.52l1.707,1.959l0.959,1.304c1.85,2.52,1.801,5.366-0.109,6.773
	C80.301,209.118,77.115,208.248,75.073,205.467 M80.574,205.304c1.565-1.149,1.844-2.962,0.692-4.524l-0.701-0.957l-0.56-0.394
	l-0.474,0.081l-4.694,3.452l-0.046,0.299l0.704,0.957C77.029,206.306,78.753,206.645,80.574,205.304 M107.031,79.496l-2.108-11.756
	l0.043-0.024l8.46,8.253l4.533-2.502l-3.97-20.107l-4.625,2.554l2.873,12.815l-0.046,0.024l-9.445-9.187l-3.536,1.952l2.511,13.016
	l-0.043,0.026l-9.066-9.4l-4.625,2.551l14.535,14.278L107.031,79.496z M136.725,68.5l5.033-0.662l-1.227-9.294l5.814-11.003
	l-6.036,0.794l-2.927,5.741l-4.312-4.787l-6.035,0.795l8.462,9.124L136.725,68.5z M77.167,91.781
	c-4.108-4.241-3.269-10.819,0.77-14.728c4.036-3.908,10.637-4.533,14.742-0.293c4.395,4.54,4.24,10.891-0.264,15.25
	C87.914,96.367,81.559,96.32,77.167,91.781 M80.982,88.125c2.338,2.419,5.834,2.456,8.009,0.349c2.18-2.107,2.252-5.602-0.086-8.022
	c-1.873-1.935-5.372-1.972-7.549,0.135C79.184,82.695,79.106,86.191,80.982,88.125 M76.449,112.883l-10.387-5.934l0.029-0.044
	l14.992-2.137l2.519-4.405L66.65,90.679l-2.516,4.407l10.361,5.92l-0.023,0.044l-14.975,2.15l-2.513,4.406l16.948,9.682
	L76.449,112.883z M146.333,56.786c0.454-5.886,5.935-9.619,11.537-9.188c5.599,0.431,10.444,4.958,9.993,10.842
	c-0.485,6.298-5.343,10.39-11.591,9.911C150.028,67.871,145.851,63.083,146.333,56.786 M156.652,63.446
	c3.019,0.232,5.688-2.03,5.943-5.385c0.204-2.685-2.083-5.326-5.104-5.56c-3.02-0.231-5.688,2.029-5.893,4.715
	C151.344,60.572,153.63,63.214,156.652,63.446 M154.526,83.053l13.576,24.456c0.12,0.217,0.132,0.48,0.037,0.708
	c-0.098,0.229-0.296,0.402-0.537,0.467c-0.327,0.089-0.661,0.178-0.991,0.269l0.698,1.949c0.055,0.145,0.04,0.306-0.034,0.442
	c-0.075,0.134-0.201,0.233-0.354,0.267l-0.549,0.126l0.62,2.321c0.058,0.218,0.023,0.45-0.098,0.639
	c-0.12,0.189-0.312,0.322-0.534,0.363c-0.058,0.012-5.871,1.12-11.789,2.022c-5.912,0.9-9.169,1.188-11.005,1.188
	c-1.721,0-2.198-0.251-2.448-0.479c-0.431-0.118-0.882-0.531-1.565-1.429c-2.844-3.698-13.033-21.677-12.372-24.147
	c0.181-0.678,0.485-1.812,13.693-5.883c6.332-1.95,12.668-3.651,12.732-3.669C153.969,82.565,154.346,82.728,154.526,83.053
	 M132.218,98.108c-0.598-1.218-1.109-2.314-1.517-3.257c-0.118-0.273-0.437-0.399-0.707-0.28c-0.276,0.119-0.402,0.435-0.281,0.709
	c0.414,0.959,0.931,2.07,1.534,3.304c0.095,0.191,0.288,0.301,0.486,0.301c0.08,0,0.164-0.017,0.238-0.054
	C132.235,98.698,132.35,98.376,132.218,98.108 M136.23,105.752c-0.56-1.008-1.123-2.04-1.666-3.062
	c-0.141-0.261-0.468-0.362-0.732-0.223c-0.258,0.141-0.359,0.467-0.218,0.73c0.546,1.03,1.109,2.065,1.675,3.081
	c0.101,0.177,0.281,0.276,0.471,0.276c0.089,0,0.181-0.021,0.261-0.067C136.279,106.341,136.377,106.012,136.23,105.752
	 M140.675,113.17c-0.54-0.81-1.167-1.801-1.856-2.944c-0.155-0.257-0.488-0.337-0.741-0.186c-0.255,0.155-0.339,0.487-0.184,0.741
	c0.701,1.159,1.333,2.165,1.884,2.986c0.104,0.155,0.276,0.24,0.448,0.24c0.104,0,0.207-0.029,0.299-0.091
	C140.772,113.752,140.841,113.417,140.675,113.17 M165.207,113.633l-0.411-1.535l-19.628,4.504
	C149.494,116.304,157.568,115.071,165.207,113.633 M165.568,109.236c-7.399,2.028-14.889,4.331-19.324,6.012l19.844-4.554
	L165.568,109.236z M86.779,219.858c-2.401,2.327-5.832,2.195-8.158-0.206s-2.43-5.458-0.104-7.705l0.311-0.304
	c2.401-2.324,5.831-2.192,8.158,0.209c2.327,2.404,2.43,5.455,0.103,7.708L86.779,219.858z M84.828,217.845
	c2.094-2.024,2.623-3.588,1.635-4.886l-0.328-0.431l-0.419-0.345c-1.267-1.028-2.844-0.549-4.941,1.477
	c-2.091,2.024-2.62,3.591-1.631,4.883l0.327,0.437l0.422,0.342C81.157,220.348,82.737,219.87,84.828,217.845 M97.508,223.634
	c0.738-0.931,0.598-2.144-0.33-2.882c-0.931-0.738-2.591-0.485-4.143,0.71l-0.707,0.54l0.267-0.336l1.778-1.896l0.27-0.336
	l-0.038-0.305l-2.873-2.28l-0.301,0.037l-0.402,0.509l0.035,0.299l0.505,0.404l0.374,0.572l-0.098,0.471l-4.562,5.751l-0.434,0.201
	l-0.646-0.232l-0.586-0.469l-0.304,0.034l-0.402,0.506l0.035,0.305l0.928,0.735l1.488,0.908l1.388,1.373l1.014,0.804l0.301-0.034
	l0.405-0.509l-0.038-0.302l-0.844-0.672l-0.374-0.568l0.098-0.475l2.752-3.467c1.608-1.336,3.243-1.833,4.004-1.229l-1.542,1.947
	l0.017,0.149C95.558,224.702,96.729,224.613,97.508,223.634 M59.546,162.717c-2.68,0-4.854,2.178-4.854,4.854
	c0,2.684,2.174,4.858,4.854,4.858s4.855-2.175,4.855-4.858C64.401,164.895,62.227,162.717,59.546,162.717 M70.055,130.989
	l-8.176-2.206l0.012-0.049l9.882-4.12l1.715-6.348l-12.131,5.494l-6.9-9.909l-1.637,6.076l6.173,8.023l-0.015,0.049l-7.773-2.097
	l-1.321,4.899l18.847,5.089L70.055,130.989z M101.366,232.446l-0.298,0.066l-0.342,0.549c-0.577,0.913-1.284,1.229-1.924,0.827
	c-0.583-0.365-0.569-1.12,0.006-2.034l3.329-5.297l0.299-0.065l2.557,1.605l0.299-0.069l0.459-0.729l-0.069-0.296l-2.557-1.605
	l-0.069-0.299l1.666-2.648l-0.069-0.299l-1.922-0.189l-0.445,0.104l-1.307,1.471l-0.411,0.253l-1.304-0.566l-0.299,0.069
	l-0.345,0.548l0.069,0.296l1.187,0.747l0.069,0.299l-3.961,6.3c-0.321,1.327,0.155,2.39,1.522,3.252
	c1.462,0.919,3.192,0.603,4.108-0.856l0.23-0.367l0.046-0.48l-0.25-0.41L101.366,232.446z"/>
</svg>
